<?xml version="1.0" encoding="UTF-8" standalone="no"?>
<!-- Created with Inkscape (http://www.inkscape.org/) -->

<svg
   xmlns:dc="http://purl.org/dc/elements/1.1/"
   xmlns:cc="http://creativecommons.org/ns#"
   xmlns:rdf="http://www.w3.org/1999/02/22-rdf-syntax-ns#"
   xmlns:svg="http://www.w3.org/2000/svg"
   xmlns="http://www.w3.org/2000/svg"
   xmlns:sodipodi="http://sodipodi.sourceforge.net/DTD/sodipodi-0.dtd"
   xmlns:inkscape="http://www.inkscape.org/namespaces/inkscape"
   id="svg7741"
   sodipodi:docname="1408006494.svg"
   viewBox="0 0 802.09 802.09"
   version="1.1"
   inkscape:version="0.48.4 r9939"
   width="100%"
   height="100%"
   inkscape:export-filename="/home/lukas/Downloads/1408006494.png"
   inkscape:export-xdpi="33.662056"
   inkscape:export-ydpi="33.662056">
  <defs
     id="defs21" />
  <sodipodi:namedview
     id="base"
     bordercolor="#666666"
     inkscape:pageshadow="2"
     inkscape:window-y="24"
     fit-margin-left="0"
     pagecolor="#ffffff"
     inkscape:window-height="1056"
     inkscape:window-maximized="1"
     inkscape:zoom="0.39778608"
     inkscape:window-x="65"
     showgrid="false"
     borderopacity="1.0"
     inkscape:current-layer="g7804"
     inkscape:cx="-47.251047"
     inkscape:cy="163.99253"
     fit-margin-top="0"
     fit-margin-right="0"
     fit-margin-bottom="0"
     inkscape:window-width="1855"
     inkscape:pageopacity="0.0"
     inkscape:document-units="px" />
  <g
     id="layer1"
     inkscape:label="Layer 1"
     inkscape:groupmode="layer"
     transform="translate(22.709,26.649997)">
    <g
       id="g7804"
       transform="translate(175,382.36)">
      <g
         id="g7929"
         transform="translate(-0.00144206,-155.98398)">
        <path
           id="polygon5"
           d="M 405.63,236.37 388.81,229.29 338.5,212.5 66,134 l 8,8 7,8 2,11 3,11 10,36 9,35 21,14 21,14 257.42,96.797 -1.8626,-44.46 c -39.671,54.212 5.9474,-52.515 3.0766,-86.965 z"
           sodipodi:nodetypes="ccccccccccccccc"
           style="fill:#95171e"
           inkscape:connector-curvature="0" />
        <path
           id="polyline7"
           d="m 430.35,-61.013 -4.7694,13.007 -1.1254,11.876 -4.155,20.715 11.77,17.439 -5.07,19.976 -2.31,18.57 0.31,19.43 3.14,11.57 5.86,12.43 9,3 8,3 11.58,-5.964 8.42,-8.036 11.27,-14.271 7.73,-14.729 7.85,-18.732 4.15,-18.268 c 3.3812,-22.114 4.1323,-58.222 -13.17,-68.008 -2.77,-1.402 -8.83,-2.992 -8.83,-2.992 l -15.037,-0.60955"
           sodipodi:nodetypes="ccccccccccccccccccccc"
           style="fill:#ab1420"
           inkscape:connector-curvature="0" />
        <path
           id="polygon9"
           d="M 384,69 377.78,57.792 375,45 374.01,26.3 376,7 l 4.74,-19.41 c 0,0 4.3721,-13.253 7.26,-19.59 9.1114,-20.676 20.948,-42.372 41,-42 l 51,13 c -26.251,3.1929 -38.215,34.953 -47.93,63.024 L 427,22 424.69,40.57 425,60 428.14,71.57 434,84 l 9,3 8,3 z"
           sodipodi:nodetypes="cccccccccccccccccc"
           style="fill:#c1001f"
           inkscape:connector-curvature="0" />
        <path
           id="polygon11"
           d="M -160,120 -0.61,161.17 149,237 158.55,302.11 153,369 -146,242 l -7,-61 z"
           sodipodi:nodetypes="cccccccc"
           style="fill:#d90023"
           inkscape:connector-curvature="0" />
        <path
           id="polygon13"
           style="fill:#95171e"
           inkscape:connector-curvature="0"
           d="m -148.2,135.16 287.41,108.83 3.32,109.7 -279.26,-118.62 z" />
        <path
           id="polygon15"
           d="m 450,-4 c -3.2076,7.4163 -5.0492,15.197 -7,23 L 440.93,31.22 441,42 443.06,49.919 447,57 451.43,60.088 457,61 463.57,57.956 469,53 476.03,44.014 480,35 484,23 c 2.3797,-7.111 3.582,-14.434 4.83,-21.796 -0.10745,-13.688 1.2086,-28.292 -14.83,-31.204 -12.599,3.6451 -18.48,14.995 -24,26 z"
           sodipodi:nodetypes="cccccccccccccccc"
           style="fill:#95171e"
           inkscape:connector-curvature="0" />
        <path
           id="polygon17"
           d="m 196,-57 c 0,0 14.215,-7.7584 29.524,-8.2433 15.31,-0.485 24.48,4.243 24.48,4.243 l 272.28,71.442 -17.54,5.526 -23.74,6.032 -319.44,219.24 -12.56,-4.24 -309,-117 305,-152 z"
           sodipodi:nodetypes="czccccccccc"
           style="fill:#c1001f"
           inkscape:connector-curvature="0" />
        <path
           id="polyline19"
           d="M 153,369 330,239 c 0,0 10.302,-8.9501 22,-4 11.698,4.9501 12,16 12,16 0,0 4.2157,41.049 6.73,61.53 11.849,43.762 24.372,66.088 66.92,54.46 58.179,-12.122 92.525,-91.437 111.97,-146.37 C 569.07,165.69 572.82,106.33 556,53 550.73,36.293 539.18,17.86 524.23,11.131 509.42,4.4636 481,22 481,22 l -332,215 4,132"
           sodipodi:nodetypes="cczccczasccc"
           style="fill:#ab011e"
           inkscape:connector-curvature="0" />
        <path
           id="polygon21"
           style="fill:#c1001f"
           inkscape:connector-curvature="0"
           d="M 178,-42 437,32 348,87 82,6 z" />
        <path
           id="polygon25"
           style="fill:#d90023"
           inkscape:connector-curvature="0"
           d="m 437,32 -259,-74 -3.96,13.571 246.69,70.482 z" />
        <path
           id="polygon27"
           style="fill:#ab1420"
           inkscape:connector-curvature="0"
           d="m 82,6 96,-48 -3.96,13.571 -74.766,39.689 z" />
        <path
           id="polygon29"
           style="fill:#95171e"
           inkscape:connector-curvature="0"
           d="M 174.04,-28.429 420.73,42.053 348,87 99.27,11.26 z" />
      </g>
    </g>
  </g>
  <metadata
     id="metadata19">
    <rdf:RDF>
      <cc:Work>
        <dc:format>image/svg+xml</dc:format>
        <dc:type
           rdf:resource="http://purl.org/dc/dcmitype/StillImage" />
        <cc:license
           rdf:resource="http://creativecommons.org/licenses/publicdomain/" />
        <dc:publisher>
          <cc:Agent
             rdf:about="http://openclipart.org/">
            <dc:title>Openclipart</dc:title>
          </cc:Agent>
        </dc:publisher>
        <dc:title></dc:title>
      </cc:Work>
      <cc:License
         rdf:about="http://creativecommons.org/licenses/publicdomain/">
        <cc:permits
           rdf:resource="http://creativecommons.org/ns#Reproduction" />
        <cc:permits
           rdf:resource="http://creativecommons.org/ns#Distribution" />
        <cc:permits
           rdf:resource="http://creativecommons.org/ns#DerivativeWorks" />
      </cc:License>
    </rdf:RDF>
  </metadata>
</svg>
